<svg version="1.1" id="Layer_1" xmlns="http://www.w3.org/2000/svg" xmlns:xlink="http://www.w3.org/1999/xlink" x="0px" y="0px"
	 width="100%" viewBox="0 0 126 130" enable-background="new 0 0 126 130" xml:space="preserve">
<path fill="#0A0A0A" opacity="1.000000" stroke="none" 
	d="
M77.000000,131.000000 
	C51.333332,131.000000 26.166666,131.000000 1.000000,131.000000 
	C1.000000,87.666664 1.000000,44.333332 1.000000,1.000000 
	C43.000000,1.000000 85.000000,1.000000 127.000000,1.000000 
	C127.000000,44.333332 127.000000,87.666664 127.000000,131.000000 
	C110.500000,131.000000 94.000000,131.000000 77.000000,131.000000 
M114.000969,78.500000 
	C114.000793,63.171902 114.063171,47.843449 113.976875,32.515835 
	C113.925468,23.385159 107.693192,17.061499 98.617043,17.027941 
	C75.625221,16.942938 52.632744,16.953606 29.640816,17.021614 
	C20.244709,17.049404 14.044047,23.308821 14.018896,32.757679 
	C13.958137,55.583038 13.958452,78.408783 14.018722,101.234146 
	C14.043683,110.687668 20.239330,116.950188 29.632643,116.978203 
	C52.624573,117.046761 75.617050,117.056610 98.608879,116.972298 
	C107.686409,116.939011 113.874603,110.617729 113.982872,101.492271 
	C114.069832,94.162476 114.000793,86.830826 114.000969,78.500000 
z"/>
<path fill="#F9F9F9" opacity="1.000000" stroke="none" 
	d="
M114.000969,79.000000 
	C114.000793,86.830826 114.069832,94.162476 113.982872,101.492271 
	C113.874603,110.617729 107.686409,116.939011 98.608879,116.972298 
	C75.617050,117.056610 52.624573,117.046761 29.632643,116.978203 
	C20.239330,116.950188 14.043683,110.687668 14.018722,101.234146 
	C13.958452,78.408783 13.958137,55.583038 14.018896,32.757679 
	C14.044047,23.308821 20.244709,17.049404 29.640816,17.021614 
	C52.632744,16.953606 75.625221,16.942938 98.617043,17.027941 
	C107.693192,17.061499 113.925468,23.385159 113.976875,32.515835 
	C114.063171,47.843449 114.000793,63.171902 114.000969,79.000000 
M71.315331,27.001837 
	C65.567383,27.001837 59.819435,27.001837 54.358715,27.001837 
	C54.358715,34.118088 54.358715,40.523441 54.358715,46.638168 
	C61.124603,46.638168 67.530128,46.638168 73.998398,46.638168 
	C73.998398,40.952995 74.094543,35.624718 73.920433,30.305286 
	C73.883904,29.188953 72.853111,28.105164 71.315331,27.001837 
M24.001450,67.489151 
	C24.001450,70.591377 24.001450,73.693604 24.001450,76.709564 
	C30.978889,76.709564 37.378742,76.709564 43.707741,76.709564 
	C43.707741,70.017303 43.707741,63.617249 43.707741,57.294098 
	C37.013500,57.294098 30.613293,57.294098 24.001450,57.294098 
	C24.001450,60.558609 24.001450,63.534710 24.001450,67.489151 
M59.597755,57.001450 
	C57.825993,57.001450 56.054226,57.001450 54.261971,57.001450 
	C54.261971,63.920704 54.261971,70.319756 54.261971,76.735748 
	C60.925240,76.735748 67.324333,76.735748 73.733459,76.735748 
	C73.733459,70.070801 73.733459,63.672127 73.733459,57.001446 
	C69.171158,57.001446 64.871017,57.001446 59.597755,57.001450 
M84.001442,61.622932 
	C84.001442,66.708138 84.001442,71.793343 84.001442,76.663071 
	C91.074234,76.663071 97.477661,76.663071 103.660316,76.663071 
	C103.660316,69.920143 103.660316,63.516510 103.660316,57.001591 
	C98.004028,57.001591 92.675583,57.192715 87.369858,56.928230 
	C84.301796,56.775288 83.610039,58.043118 84.001442,61.622932 
M73.246033,106.934738 
	C73.603256,100.428360 73.960472,93.921989 74.328850,87.212456 
	C67.182831,87.212456 60.784035,87.212456 54.215317,87.212456 
	C54.215317,93.823112 54.215317,100.221931 54.215317,106.993622 
	C60.374260,106.993622 66.327232,106.993622 73.246033,106.934738 
M24.000303,34.787178 
	C24.000303,38.733540 24.000303,42.679897 24.000303,46.796089 
	C30.813456,46.796089 37.206993,46.796089 43.799919,46.796089 
	C43.799919,40.199028 43.799919,33.805500 43.799919,27.000387 
	C39.338139,27.000387 35.053856,27.123602 30.779724,26.967962 
	C25.875092,26.789364 23.676504,29.026512 24.000303,34.787178 
M84.000267,38.474648 
	C84.000267,41.239346 84.000267,44.004044 84.000267,46.735512 
	C90.946640,46.735512 97.336975,46.735512 103.995132,46.735512 
	C103.995132,41.684227 104.412842,36.838863 103.787560,32.132057 
	C103.540787,30.274454 101.131058,27.491852 99.426506,27.268888 
	C94.429932,26.615305 89.292816,27.036203 84.000267,27.036203 
	C84.000267,30.885448 84.000267,34.187332 84.000267,38.474648 
M24.000271,93.532036 
	C24.002756,96.357498 23.422764,99.357246 24.198942,101.951202 
	C24.780636,103.895210 26.952541,106.518936 28.687578,106.743309 
	C33.679726,107.388878 38.809387,106.971100 43.674572,106.971100 
	C43.674572,99.930618 43.674572,93.535194 43.674572,87.315536 
	C36.951103,87.315536 30.556683,87.315536 24.000273,87.315536 
	C24.000273,89.276489 24.000273,90.923073 24.000271,93.532036 
M100.345734,87.000298 
	C94.936279,87.000298 89.526817,87.000298 84.321983,87.000298 
	C84.321983,94.064148 84.321983,100.459435 84.321983,106.999649 
	C88.784363,106.999649 92.925964,106.999748 97.067558,106.999527 
	C97.566132,106.999496 98.065140,107.011147 98.563202,106.994621 
	C101.925880,106.883034 103.871613,105.175682 103.967712,101.790550 
	C104.085564,97.639099 104.141235,93.472557 103.876221,89.334801 
	C103.823097,88.505478 102.209373,87.776115 100.345734,87.000298 
z"/>
<path fill="#0A0A0A" opacity="1.000000" stroke="none" 
	d="
M71.797897,27.004108 
	C72.853111,28.105164 73.883904,29.188953 73.920433,30.305286 
	C74.094543,35.624718 73.998398,40.952995 73.998398,46.638168 
	C67.530128,46.638168 61.124603,46.638168 54.358715,46.638168 
	C54.358715,40.523441 54.358715,34.118088 54.358715,27.001837 
	C59.819435,27.001837 65.567383,27.001837 71.797897,27.004108 
z"/>
<path fill="#0A0A0A" opacity="1.000000" stroke="none" 
	d="
M24.001450,66.999985 
	C24.001450,63.534710 24.001450,60.558609 24.001450,57.294098 
	C30.613293,57.294098 37.013500,57.294098 43.707741,57.294098 
	C43.707741,63.617249 43.707741,70.017303 43.707741,76.709564 
	C37.378742,76.709564 30.978889,76.709564 24.001450,76.709564 
	C24.001450,73.693604 24.001450,70.591377 24.001450,66.999985 
z"/>
<path fill="#0A0A0A" opacity="1.000000" stroke="none" 
	d="
M60.084312,57.001450 
	C64.871017,57.001446 69.171158,57.001446 73.733459,57.001446 
	C73.733459,63.672127 73.733459,70.070801 73.733459,76.735748 
	C67.324333,76.735748 60.925240,76.735748 54.261971,76.735748 
	C54.261971,70.319756 54.261971,63.920704 54.261971,57.001450 
	C56.054226,57.001450 57.825993,57.001450 60.084312,57.001450 
z"/>
<path fill="#0A0A0A" opacity="1.000000" stroke="none" 
	d="
M84.001457,61.138668 
	C83.610039,58.043118 84.301796,56.775288 87.369858,56.928230 
	C92.675583,57.192715 98.004028,57.001591 103.660316,57.001591 
	C103.660316,63.516510 103.660316,69.920143 103.660316,76.663071 
	C97.477661,76.663071 91.074234,76.663071 84.001442,76.663071 
	C84.001442,71.793343 84.001442,66.708138 84.001457,61.138668 
z"/>
<path fill="#0A0A0A" opacity="1.000000" stroke="none" 
	d="
M72.763115,106.964180 
	C66.327232,106.993622 60.374260,106.993622 54.215317,106.993622 
	C54.215317,100.221931 54.215317,93.823112 54.215317,87.212456 
	C60.784035,87.212456 67.182831,87.212456 74.328850,87.212456 
	C73.960472,93.921989 73.603256,100.428360 72.763115,106.964180 
z"/>
<path fill="#0B0B0B" opacity="1.000000" stroke="none" 
	d="
M24.000332,34.326302 
	C23.676504,29.026512 25.875092,26.789364 30.779724,26.967962 
	C35.053856,27.123602 39.338139,27.000387 43.799919,27.000387 
	C43.799919,33.805500 43.799919,40.199028 43.799919,46.796089 
	C37.206993,46.796089 30.813456,46.796089 24.000303,46.796089 
	C24.000303,42.679897 24.000303,38.733540 24.000332,34.326302 
z"/>
<path fill="#0B0B0B" opacity="1.000000" stroke="none" 
	d="
M84.000267,37.981934 
	C84.000267,34.187332 84.000267,30.885448 84.000267,27.036203 
	C89.292816,27.036203 94.429932,26.615305 99.426506,27.268888 
	C101.131058,27.491852 103.540787,30.274454 103.787560,32.132057 
	C104.412842,36.838863 103.995132,41.684227 103.995132,46.735512 
	C97.336975,46.735512 90.946640,46.735512 84.000267,46.735512 
	C84.000267,44.004044 84.000267,41.239346 84.000267,37.981934 
z"/>
<path fill="#0B0B0B" opacity="1.000000" stroke="none" 
	d="
M24.000271,93.050842 
	C24.000273,90.923073 24.000273,89.276489 24.000273,87.315536 
	C30.556683,87.315536 36.951103,87.315536 43.674572,87.315536 
	C43.674572,93.535194 43.674572,99.930618 43.674572,106.971100 
	C38.809387,106.971100 33.679726,107.388878 28.687578,106.743309 
	C26.952541,106.518936 24.780636,103.895210 24.198942,101.951202 
	C23.422764,99.357246 24.002756,96.357498 24.000271,93.050842 
z"/>
<path fill="#0B0B0B" opacity="1.000000" stroke="none" 
	d="
M100.830475,87.000481 
	C102.209373,87.776115 103.823097,88.505478 103.876221,89.334801 
	C104.141235,93.472557 104.085564,97.639099 103.967712,101.790550 
	C103.871613,105.175682 101.925880,106.883034 98.563202,106.994621 
	C98.065140,107.011147 97.566132,106.999496 97.067558,106.999527 
	C92.925964,106.999748 88.784363,106.999649 84.321983,106.999649 
	C84.321983,100.459435 84.321983,94.064148 84.321983,87.000298 
	C89.526817,87.000298 94.936279,87.000298 100.830475,87.000481 
z"/>
</svg>